<svg width="24" height="26" xmlns="http://www.w3.org/2000/svg" xmlns:xlink="http://www.w3.org/1999/xlink" overflow="hidden"><defs><clipPath id="clip0"><rect x="632" y="347" width="24" height="26"/></clipPath><clipPath id="clip1"><rect x="632" y="347" width="15" height="25"/></clipPath><clipPath id="clip2"><rect x="632" y="347" width="15" height="25"/></clipPath><clipPath id="clip3"><rect x="632" y="347" width="15" height="25"/></clipPath><clipPath id="clip4"><rect x="647" y="356" width="9" height="16"/></clipPath><clipPath id="clip5"><rect x="647" y="356" width="9" height="16"/></clipPath><clipPath id="clip6"><rect x="647" y="356" width="9" height="16"/></clipPath></defs><g clip-path="url(#clip0)" transform="translate(-632 -347)"><g clip-path="url(#clip1)"><g clip-path="url(#clip2)"><g clip-path="url(#clip3)"><path d="M645.031 348.914 634.04 347.244C633.53 347.165 633.01 347.304 632.62 347.634 632.229 347.975 632 348.464 632 348.974L632 370.044C632 370.595 632.45 371.045 633 371.045L636.251 371.045 636.251 365.795C636.251 364.824 637.031 364.044 638.002 364.044L640.502 364.044C641.472 364.044 642.253 364.824 642.253 365.795L642.253 371.045 646.502 371.045 646.502 350.645C646.5 349.784 645.88 349.055 645.031 348.914L645.031 348.914ZM637.5 361.794 636 361.794C635.586 361.794 635.25 361.458 635.25 361.044 635.25 360.63 635.586 360.294 636 360.294L637.5 360.294C637.914 360.294 638.25 360.63 638.25 361.044 638.25 361.458 637.914 361.794 637.5 361.794ZM637.5 358.794 636 358.794C635.586 358.794 635.25 358.458 635.25 358.044 635.25 357.63 635.586 357.294 636 357.294L637.5 357.294C637.914 357.294 638.25 357.63 638.25 358.044 638.25 358.458 637.914 358.794 637.5 358.794ZM637.5 355.794 636 355.794C635.586 355.794 635.25 355.458 635.25 355.044 635.25 354.63 635.586 354.294 636 354.294L637.5 354.294C637.914 354.294 638.25 354.63 638.25 355.044 638.25 355.458 637.914 355.794 637.5 355.794ZM637.5 352.794 636 352.794C635.586 352.794 635.25 352.458 635.25 352.044 635.25 351.63 635.586 351.294 636 351.294L637.5 351.294C637.914 351.294 638.25 351.63 638.25 352.044 638.25 352.458 637.914 352.794 637.5 352.794ZM642.5 361.794 641 361.794C640.586 361.794 640.25 361.458 640.25 361.044 640.25 360.63 640.586 360.294 641 360.294L642.5 360.294C642.914 360.294 643.25 360.63 643.25 361.044 643.25 361.458 642.914 361.794 642.5 361.794ZM642.5 358.794 641 358.794C640.586 358.794 640.25 358.458 640.25 358.044 640.25 357.63 640.586 357.294 641 357.294L642.5 357.294C642.914 357.294 643.25 357.63 643.25 358.044 643.25 358.458 642.914 358.794 642.5 358.794ZM642.5 355.794 641 355.794C640.586 355.794 640.25 355.458 640.25 355.044 640.25 354.63 640.586 354.294 641 354.294L642.5 354.294C642.914 354.294 643.25 354.63 643.25 355.044 643.25 355.458 642.914 355.794 642.5 355.794ZM642.5 352.794 641 352.794C640.586 352.794 640.25 352.458 640.25 352.044 640.25 351.63 640.586 351.294 641 351.294L642.5 351.294C642.914 351.294 643.25 351.63 643.25 352.044 643.25 352.458 642.914 352.794 642.5 352.794Z" fill="#232536"/></g></g></g><g clip-path="url(#clip4)"><g clip-path="url(#clip5)"><g clip-path="url(#clip6)"><path d="M654.62 357.887 647.5 356.396 647.5 371.045 654.25 371.045C655.214 371.045 656 370.26 656 369.294L656 359.597C656 358.771 655.437 358.067 654.62 357.887ZM652.25 368.045 650.75 368.045C650.336 368.045 650 367.709 650 367.295 650 366.881 650.336 366.545 650.75 366.545L652.25 366.545C652.664 366.545 653 366.881 653 367.295 653 367.709 652.664 368.045 652.25 368.045ZM652.25 365.045 650.75 365.045C650.336 365.045 650 364.709 650 364.295 650 363.881 650.336 363.545 650.75 363.545L652.25 363.545C652.664 363.545 653 363.881 653 364.295 653 364.709 652.664 365.045 652.25 365.045ZM652.25 362.045 650.75 362.045C650.336 362.045 650 361.709 650 361.295 650 360.881 650.336 360.545 650.75 360.545L652.25 360.545C652.664 360.545 653 360.881 653 361.295 653 361.709 652.664 362.045 652.25 362.045Z" fill="#FFD050"/></g></g></g></g></svg>